<svg xmlns="http://www.w3.org/2000/svg" xmlns:xlink="http://www.w3.org/1999/xlink" viewBox="0 0 101.1 159.6"><defs><style>.cls-1{fill:#f936b4;}.cls-2{fill:url(#未命名的渐变_109);}.cls-3{fill:#e35cc7;}.cls-4{fill:#8961d0;}.cls-5,.cls-6{opacity:0.48;}.cls-5{fill:url(#未命名的渐变_138);}.cls-6{fill:#480061;}.cls-7{opacity:0.75;fill:url(#未命名的渐变_161);}.cls-8{fill:url(#未命名的渐变_129);}.cls-9{opacity:0.43;fill:url(#未命名的渐变_66);}.cls-10{fill:#fff;}</style><linearGradient id="未命名的渐变_109" x1="1737.49" y1="1429.93" x2="1752.24" y2="1429.93" gradientTransform="matrix(-0.12, -0.99, -0.99, 0.12, 1714.95, 1601.75)" gradientUnits="userSpaceOnUse"><stop offset="0" stop-color="#4750d9"/><stop offset="0.41" stop-color="#5c45dc"/><stop offset="1" stop-color="#8131e1"/></linearGradient><linearGradient id="未命名的渐变_138" x1="1759.4" y1="1425.32" x2="1761.56" y2="1425.32" gradientTransform="matrix(-0.12, -0.99, -0.99, 0.12, 1714.95, 1601.75)" gradientUnits="userSpaceOnUse"><stop offset="0" stop-color="#b100d3"/><stop offset="0.23" stop-color="#9c00c0"/><stop offset="0.69" stop-color="#67008e"/><stop offset="1" stop-color="#40006a"/></linearGradient><linearGradient id="未命名的渐变_161" x1="1742.22" y1="1426.39" x2="1769.4" y2="1426.39" gradientTransform="matrix(-0.12, -0.99, -0.99, 0.12, 1714.95, 1601.75)" gradientUnits="userSpaceOnUse"><stop offset="0" stop-color="#d0d7d3"/><stop offset="0.52" stop-color="#d9c5e8"/><stop offset="1" stop-color="#e3b1ff"/></linearGradient><linearGradient id="未命名的渐变_129" x1="1742.15" y1="1426.39" x2="1756.88" y2="1426.39" gradientTransform="matrix(-0.12, -0.99, -0.99, 0.12, 1714.95, 1601.75)" gradientUnits="userSpaceOnUse"><stop offset="0" stop-color="#b277ec"/><stop offset="0.77" stop-color="#9336e7"/><stop offset="1" stop-color="#8921e6"/></linearGradient><linearGradient id="未命名的渐变_66" x1="1761.91" y1="1427.81" x2="1768.97" y2="1427.81" gradientTransform="matrix(-0.12, -0.99, -0.99, 0.12, 1714.95, 1601.75)" gradientUnits="userSpaceOnUse"><stop offset="0" stop-opacity="0.5"/><stop offset="0.1" stop-color="#201322" stop-opacity="0.59"/><stop offset="0.25" stop-color="#4a2c4e" stop-opacity="0.72"/><stop offset="0.4" stop-color="#6d4173" stop-opacity="0.82"/><stop offset="0.55" stop-color="#885190" stop-opacity="0.9"/><stop offset="0.7" stop-color="#9b5da4" stop-opacity="0.95"/><stop offset="0.85" stop-color="#a664b0" stop-opacity="0.99"/><stop offset="1" stop-color="#aa66b4"/></linearGradient></defs><g id="Layer_2" data-name="Layer 2"><g id="Layer_1-2" data-name="Layer 1"><path class="cls-1" d="M98.6,122.4S95.3,136.1,83.7,139s-22.8-1.3-31.6-3.8L38,131.1a83.6,83.6,0,0,0,5.8-23.7,235.8,235.8,0,0,0,.5-24.9l29-.4V71.9l-29.5.2s-6.2-41,2.5-53.9c3.7-5.4,11.3-9.3,20.6-6.4,6.6,2,9.9,9.9,10.4,12.4s.4,5.4.8,7.7v.4h.1c.9,2.5,2.9,4.2,7.6,4.2a6.7,6.7,0,0,0,2.8-.6l.4,3.7,1.8-2.2a35.9,35.9,0,0,0,3.7-4.8,19.8,19.8,0,0,0,2.2-11.8,18.1,18.1,0,0,0-2.2-6.8L94,13a19,19,0,0,0-3.4-4.1l-.2-.3h-.1a44.8,44.8,0,0,0-8.1-5.2C76.4,1,60.1-3.5,47.4,4.7,31.2,15.1,25.2,28.6,25.2,47.2s1.2,24.9,1.2,24.9H4.8V82.5H26.4s.8,15,1.7,23.7c.5,5.7,0,22.8,0,22.8S10,124.2,3.2,134.8s-1.1,27.1,12,24.5C30.8,156.2,33.9,141,33.9,141S53,161,73.3,159.3c27.9-2.3,27.8-36.1,27.8-36.1ZM22.5,147.1c-2.5,3.7-7.8,8.4-13.7,4.5S5.1,137.8,11.7,135s14.1,2.1,14.1,2.1S25,143.3,22.5,147.1Z"/><path class="cls-2" d="M84.2,38.2l-.4.4-7.4,9.6-2.3,2.9a1.3,1.3,0,0,0-.4.6,1.5,1.5,0,0,0-.2.9,1.8,1.8,0,0,0,2,1.6l8-1A7.5,7.5,0,0,0,89.7,45l-.9-7.3-1.9,2.4-2.2,2.7Z"/><path class="cls-3" d="M84.9,20.8l-.9.4h0l-6.2,8.1h-.1L80,47.7a1.2,1.2,0,0,0,2,.6l7-9h0l-2.1-17A1.8,1.8,0,0,0,84.9,20.8Zm-1.1,8.1a1,1,0,0,1,1.2.9,1.3,1.3,0,0,1-.1.6h0l-.3.4h0l-.5.2a1.1,1.1,0,0,1-1.3-1A1.2,1.2,0,0,1,83.8,28.9Z"/><path class="cls-4" d="M88.7,37.2v.3h-.1c.1.1.1.1.1.2V38h0v.4h0V39h0a.1.1,0,0,0,.1.1v.4l-6.8,8.8a1.3,1.3,0,0,1-2.2-.6V46.2h0v-.4h0V44.1L88.2,33Z"/><circle class="cls-4" cx="83.9" cy="30" r="1.1"/><circle class="cls-5" cx="83.9" cy="30" r="1.1"/><path class="cls-6" d="M83.8,28.9a1,1,0,0,1,1.2.9,1.2,1.2,0,0,1-.4,1,.9.9,0,0,0,.1-.7,1.1,1.1,0,0,0-1.2-1l-.5.2A1.2,1.2,0,0,1,83.8,28.9Z"/><path class="cls-7" d="M84.9,20.8l-.9.4-6.3,8.1L80,47.7a1.1,1.1,0,0,0,2,.5l7-8.9-2.1-17A1.8,1.8,0,0,0,84.9,20.8Zm-1.1,8.1a1,1,0,0,1,1.2.9,1.3,1.3,0,0,1-.1.6h0l-.3.4h0a1.1,1.1,0,0,1-.6.2,1.1,1.1,0,0,1-1.2-.9A1.2,1.2,0,0,1,83.8,28.9Z"/><path class="cls-8" d="M88.7,37.2v.3h-.1c.1.1.1.1.1.2V38h0v.4h0V39h0a.1.1,0,0,0,.1.1v.4l-6.8,8.8a1.3,1.3,0,0,1-2.2-.6V46.2h0v-.4h0V44.1L88.2,33Z"/><polygon class="cls-9" points="77.5 27.2 83.9 21.4 77.8 29.3 77.5 27.2"/><circle class="cls-10" cx="83.6" cy="29.6" r="2.2"/><circle cx="83.1" cy="29.4" r="1.4"/></g></g></svg>
